<svg viewBox="0 0 512 512" fill="none" xmlns="http://www.w3.org/2000/svg">
    <path d="M269.939 262.273c-8.466-4.139-18.427-2.976-26.544 1.811L106.72 344.687c-21.2 12.503-20.904 43.27.533 55.362l136.546 77.027c7.891 4.451 17.437 5.537 25.643 1.695 89.04-41.687 89.052-173.202.497-216.498Z" fill="#CCC20D" />
    <path d="M242.968 251.256c8.196 3.831 17.727 2.742 25.609-1.699 45.587-25.683 91.408-51.386 137.112-77.077 21.461-12.064 21.768-42.838.562-55.344L269.6 36.546c-8.114-4.785-18.071-5.948-26.536-1.816-88.69 43.3-89.029 174.952-.096 216.526Z" fill="#AF85FF" />
</svg>